<svg width="40" height="40" viewBox="0 0 40 40" fill="none" xmlns="http://www.w3.org/2000/svg">
<g clip-path="url(#clip0_17_50)">
<path d="M20 40C31.0455 40 39.9997 31.0459 39.9997 20.0004C39.9997 8.95488 31.0455 0.000732422 20 0.000732422C8.95451 0.000732422 0.000366211 8.95488 0.000366211 20.0004C0.000366211 31.0459 8.95451 40 20 40Z" fill="#CB2027"/>
<path d="M21.6143 26.7819C20.1023 26.665 19.467 25.9152 18.2813 25.1954C17.6296 28.6147 16.8331 31.8925 14.4741 33.6048C13.745 28.4368 15.5429 24.5551 16.3778 20.4349C14.9547 18.0391 16.549 13.217 19.5508 14.4052C23.2454 15.8662 16.3522 23.3134 20.9797 24.2435C25.8108 25.2147 27.783 15.8608 24.7869 12.8184C20.4581 8.42578 12.1867 12.7185 13.2038 19.0067C13.4516 20.544 15.0402 21.0107 13.8384 23.1319C11.068 22.5184 10.2416 20.3333 10.3478 17.4202C10.5193 12.6519 14.6324 9.31314 18.7579 8.8511C23.9755 8.26713 28.8725 10.767 29.5485 15.6747C30.3089 21.2139 27.193 27.2126 21.6143 26.7819Z" fill="#F1F2F2"/>
</g>
<defs>
<clipPath id="clip0_17_50">
<rect width="40" height="40" fill="white"/>
</clipPath>
</defs>
</svg>
