<svg width="40" height="39" viewBox="0 0 40 39" fill="none" xmlns="http://www.w3.org/2000/svg">
<path fill-rule="evenodd" clip-rule="evenodd" d="M30 20.1577C30 21.7299 29.8 23.3021 29.8 23.3021C29.8 23.3021 29.605 24.6399 29.005 25.2299C28.245 26.0033 27.3925 26.0069 27.0012 26.0518C24.2025 26.2485 20 26.2546 20 26.2546C20 26.2546 14.8 26.2085 13.2 26.0603C12.755 25.979 11.755 26.0033 10.995 25.2299C10.395 24.6399 10.2 23.3021 10.2 23.3021C10.2 23.3021 10 21.7299 10 20.1577V18.6839C10 17.1117 10.2 15.5408 10.2 15.5408C10.2 15.5408 10.395 14.2017 10.995 13.6117C11.755 12.8384 12.6075 12.8347 12.9988 12.7898C15.7975 12.5931 19.9963 12.5931 19.9963 12.5931H20.0037C20.0037 12.5931 24.2025 12.5931 27.0012 12.7898C27.3925 12.8347 28.245 12.8384 29.005 13.6117C29.605 14.2017 29.8 15.5408 29.8 15.5408C29.8 15.5408 30 17.1117 30 18.6839V20.1577ZM20 0C8.95375 0 0 8.69609 0 19.4245C0 30.1516 8.95375 38.8489 20 38.8489C31.0462 38.8489 40 30.1516 40 19.4245C40 8.69609 31.0462 0 20 0Z" fill="#EA412C"/>
<path fill-rule="evenodd" clip-rule="evenodd" d="M17.9353 21.9436L23.339 19.2242L17.934 16.4854L17.9353 21.9436Z" fill="#EA412C"/>
</svg>
